<svg width="40" height="40" viewBox="0 0 40 40" fill="none" xmlns="http://www.w3.org/2000/svg">
<path d="M0 19.2C0 12.4794 0 9.11905 1.30792 6.55211C2.4584 4.29417 4.29417 2.4584 6.55211 1.30792C9.11905 0 12.4794 0 19.2 0H20.8C27.5206 0 30.8809 0 33.4479 1.30792C35.7058 2.4584 37.5416 4.29417 38.6921 6.55211C40 9.11905 40 12.4794 40 19.2V20.8C40 27.5206 40 30.8809 38.6921 33.4479C37.5416 35.7058 35.7058 37.5416 33.4479 38.6921C30.8809 40 27.5206 40 20.8 40H19.2C12.4794 40 9.11905 40 6.55211 38.6921C4.29417 37.5416 2.4584 35.7058 1.30792 33.4479C0 30.8809 0 27.5206 0 20.8V19.2Z" fill="rgba(82, 82, 82, 0.7"/>
<path d="M20 10.25C18.0109 10.25 16.1032 11.0402 14.6967 12.4467C13.2902 13.8532 12.5 15.7609 12.5 17.75C12.5 24.5 20 29.75 20 29.75C20 29.75 27.5 24.5 27.5 17.75C27.5 15.7609 26.7098 13.8532 25.3033 12.4467C23.8968 11.0402 21.9891 10.25 20 10.25ZM20 20.75C19.4067 20.75 18.8266 20.5741 18.3333 20.2444C17.8399 19.9148 17.4554 19.4462 17.2284 18.8981C17.0013 18.3499 16.9419 17.7467 17.0576 17.1647C17.1734 16.5828 17.4591 16.0482 17.8787 15.6287C18.2982 15.2091 18.8328 14.9234 19.4147 14.8076C19.9967 14.6919 20.5999 14.7513 21.148 14.9784C21.6962 15.2054 22.1648 15.5899 22.4944 16.0833C22.8241 16.5766 23 17.1567 23 17.75C23 18.5456 22.6839 19.3087 22.1213 19.8713C21.5587 20.4339 20.7956 20.75 20 20.75Z" fill="white" fill-opacity="0.1"/>
<path d="M26.75 29H22.1131C22.892 28.3045 23.6266 27.5608 24.3125 26.7734C26.8859 23.8138 28.25 20.6937 28.25 17.75C28.25 15.562 27.3808 13.4635 25.8336 11.9164C24.2865 10.3692 22.188 9.5 20 9.5C17.812 9.5 15.7135 10.3692 14.1664 11.9164C12.6192 13.4635 11.75 15.562 11.75 17.75C11.75 20.6937 13.1103 23.8138 15.6875 26.7734C16.3734 27.5608 17.1079 28.3045 17.8869 29H13.25C13.0511 29 12.8603 29.079 12.7197 29.2197C12.579 29.3603 12.5 29.5511 12.5 29.75C12.5 29.9489 12.579 30.1397 12.7197 30.2803C12.8603 30.421 13.0511 30.5 13.25 30.5H26.75C26.9489 30.5 27.1397 30.421 27.2803 30.2803C27.421 30.1397 27.5 29.9489 27.5 29.75C27.5 29.5511 27.421 29.3603 27.2803 29.2197C27.1397 29.079 26.9489 29 26.75 29ZM13.25 17.75C13.25 15.9598 13.9612 14.2429 15.227 12.977C16.4929 11.7112 18.2098 11 20 11C21.7902 11 23.5071 11.7112 24.773 12.977C26.0388 14.2429 26.75 15.9598 26.75 17.75C26.75 23.1153 21.5497 27.5938 20 28.8125C18.4503 27.5938 13.25 23.1153 13.25 17.75ZM23.75 17.75C23.75 17.0083 23.5301 16.2833 23.118 15.6666C22.706 15.0499 22.1203 14.5693 21.4351 14.2855C20.7498 14.0016 19.9958 13.9274 19.2684 14.0721C18.541 14.2167 17.8728 14.5739 17.3483 15.0983C16.8239 15.6228 16.4667 16.291 16.3221 17.0184C16.1774 17.7458 16.2516 18.4998 16.5355 19.1851C16.8193 19.8703 17.2999 20.456 17.9166 20.868C18.5333 21.2801 19.2583 21.5 20 21.5C20.9946 21.5 21.9484 21.1049 22.6517 20.4017C23.3549 19.6984 23.75 18.7446 23.75 17.75ZM17.75 17.75C17.75 17.305 17.882 16.87 18.1292 16.5C18.3764 16.13 18.7278 15.8416 19.139 15.6713C19.5501 15.501 20.0025 15.4564 20.439 15.5432C20.8754 15.63 21.2763 15.8443 21.591 16.159C21.9057 16.4737 22.12 16.8746 22.2068 17.311C22.2936 17.7475 22.249 18.1999 22.0787 18.611C21.9084 19.0222 21.62 19.3736 21.25 19.6208C20.88 19.868 20.445 20 20 20C19.4033 20 18.831 19.7629 18.409 19.341C17.9871 18.919 17.75 18.3467 17.75 17.75Z" fill="white"/>
</svg>
