<svg width="40" height="40" viewBox="0 0 40 40" fill="none" xmlns="http://www.w3.org/2000/svg">
<path d="M0 19.2C0 12.4794 0 9.11905 1.30792 6.55211C2.4584 4.29417 4.29417 2.4584 6.55211 1.30792C9.11905 0 12.4794 0 19.2 0H20.8C27.5206 0 30.8809 0 33.4479 1.30792C35.7058 2.4584 37.5416 4.29417 38.6921 6.55211C40 9.11905 40 12.4794 40 19.2V20.8C40 27.5206 40 30.8809 38.6921 33.4479C37.5416 35.7058 35.7058 37.5416 33.4479 38.6921C30.8809 40 27.5206 40 20.8 40H19.2C12.4794 40 9.11905 40 6.55211 38.6921C4.29417 37.5416 2.4584 35.7058 1.30792 33.4479C0 30.8809 0 27.5206 0 20.8V19.2Z" fill="rgba(82, 82, 82, 0.7"/>
<path d="M23 14.75V28.25L17 25.25V11.75L23 14.75Z" fill="white" fill-opacity="0.1"/>
<path d="M29.4612 12.6585C29.3714 12.5884 29.2668 12.5398 29.1554 12.5163C29.0439 12.4927 28.9286 12.4949 28.8181 12.5225L23.0872 13.955L17.3356 11.0788C17.1754 10.9988 16.9918 10.9789 16.8181 11.0225L10.8181 12.5225C10.6559 12.5631 10.5118 12.6567 10.4089 12.7885C10.306 12.9203 10.25 13.0828 10.25 13.25V26.75C10.25 26.864 10.276 26.9764 10.326 27.0789C10.376 27.1813 10.4486 27.271 10.5385 27.3411C10.6283 27.4112 10.7329 27.4599 10.8444 27.4836C10.9559 27.5072 11.0713 27.5051 11.1819 27.4775L16.9128 26.045L22.6644 28.9213C22.7688 28.9727 22.8836 28.9997 23 29C23.0613 29 23.1224 28.9924 23.1819 28.9775L29.1819 27.4775C29.3441 27.437 29.4882 27.3433 29.5911 27.2115C29.694 27.0797 29.75 26.9173 29.75 26.75V13.25C29.75 13.1359 29.724 13.0234 29.674 12.9209C29.624 12.8183 29.5512 12.7286 29.4612 12.6585ZM17.75 12.9631L22.25 15.2131V27.0369L17.75 24.7869V12.9631ZM11.75 13.836L16.25 12.711V24.6641L11.75 25.7891V13.836ZM28.25 26.1641L23.75 27.2891V15.336L28.25 14.211V26.1641Z" fill="white"/>
</svg>
