<svg width="40" height="40" viewBox="0 0 40 40" fill="none" xmlns="http://www.w3.org/2000/svg">
<path d="M0 19.2C0 12.4794 0 9.11905 1.30792 6.55211C2.4584 4.29417 4.29417 2.4584 6.55211 1.30792C9.11905 0 12.4794 0 19.2 0H20.8C27.5206 0 30.8809 0 33.4479 1.30792C35.7058 2.4584 37.5416 4.29417 38.6921 6.55211C40 9.11905 40 12.4794 40 19.2V20.8C40 27.5206 40 30.8809 38.6921 33.4479C37.5416 35.7058 35.7058 37.5416 33.4479 38.6921C30.8809 40 27.5206 40 20.8 40H19.2C12.4794 40 9.11905 40 6.55211 38.6921C4.29417 37.5416 2.4584 35.7058 1.30792 33.4479C0 30.8809 0 27.5206 0 20.8V19.2Z" fill="rgba(82, 82, 82, 0.7"/>
<path d="M28.25 14.75V25.25C28.25 25.25 26.75 26.75 23.75 26.75C20.75 26.75 19.25 23.75 16.25 23.75C13.25 23.75 11.75 25.25 11.75 25.25V14.75C11.75 14.75 13.25 13.25 16.25 13.25C19.25 13.25 20.75 16.25 23.75 16.25C26.75 16.25 28.25 14.75 28.25 14.75Z" fill="white" fill-opacity="0.1"/>
<path d="M11.2185 15.2825C11.1484 15.2128 11.0929 15.13 11.055 15.0388C11.0171 14.9475 10.9976 14.8497 10.9976 14.7509C10.9976 14.6522 11.0171 14.5543 11.055 14.4631C11.0929 14.3719 11.1484 14.2891 11.2185 14.2194C11.2907 14.1491 12.9782 12.5 16.25 12.5C17.9769 12.5 19.2725 13.3634 20.4163 14.1256C21.4757 14.8325 22.4769 15.5 23.75 15.5C24.778 15.5153 25.7959 15.2964 26.7266 14.8597C27.0875 14.6932 27.4231 14.4763 27.7232 14.2156C27.7931 14.1463 27.876 14.0913 27.9671 14.054C28.0583 14.0167 28.1559 13.9976 28.2544 13.998C28.3529 13.9984 28.4504 14.0182 28.5412 14.0563C28.6321 14.0943 28.7146 14.1499 28.7839 14.2198C28.8533 14.2898 28.9082 14.3727 28.9456 14.4638C28.9829 14.555 29.0019 14.6526 29.0015 14.7511C29.0011 14.8496 28.9813 14.9471 28.9433 15.0379C28.9052 15.1288 28.8496 15.2113 28.7797 15.2806C28.7094 15.3509 27.0219 17 23.75 17C22.0232 17 20.7275 16.1366 19.5838 15.3744C18.5244 14.6675 17.5232 14 16.25 14C15.2221 13.9847 14.2042 14.2036 13.2735 14.6403C12.9125 14.8068 12.577 15.0237 12.2769 15.2844C12.1361 15.4241 11.9457 15.5024 11.7473 15.502C11.5489 15.5016 11.3588 15.4227 11.2185 15.2825ZM27.7232 19.4656C27.4231 19.7263 27.0875 19.9432 26.7266 20.1097C25.7959 20.5464 24.778 20.7653 23.75 20.75C22.4769 20.75 21.4757 20.0825 20.4163 19.3756C19.2725 18.6134 17.9769 17.75 16.25 17.75C12.9782 17.75 11.2907 19.3991 11.2203 19.4694C11.0791 19.6095 10.9993 19.8 10.9985 19.9989C10.9977 20.1978 11.076 20.3889 11.2161 20.5302C11.3562 20.6714 11.5467 20.7512 11.7456 20.752C11.9446 20.7528 12.1357 20.6745 12.2769 20.5344C12.577 20.2737 12.9125 20.0568 13.2735 19.8903C14.2042 19.4536 15.2221 19.2347 16.25 19.25C17.5232 19.25 18.5244 19.9175 19.5838 20.6244C20.7275 21.3866 22.0213 22.25 23.75 22.25C27.0219 22.25 28.7094 20.6009 28.7797 20.5306C28.8496 20.4613 28.9052 20.3788 28.9433 20.2879C28.9813 20.1971 29.0011 20.0996 29.0015 20.0011C29.0019 19.9026 28.9829 19.805 28.9456 19.7138C28.9082 19.6227 28.8533 19.5398 28.7839 19.4698C28.7146 19.3999 28.6321 19.3443 28.5412 19.3063C28.4504 19.2682 28.3529 19.2484 28.2544 19.248C28.1559 19.2476 28.0583 19.2667 27.9671 19.304C27.876 19.3413 27.7931 19.3963 27.7232 19.4656ZM27.7232 24.7156C27.4231 24.9763 27.0875 25.1932 26.7266 25.3597C25.7959 25.7964 24.778 26.0153 23.75 26C22.4769 26 21.4757 25.3325 20.4163 24.6256C19.2725 23.8634 17.9769 23 16.25 23C12.9782 23 11.2907 24.6491 11.2203 24.7194C11.0791 24.8595 10.9993 25.05 10.9985 25.2489C10.9977 25.4478 11.076 25.6389 11.2161 25.7802C11.3562 25.9214 11.5467 26.0012 11.7456 26.002C11.9446 26.0028 12.1357 25.9245 12.2769 25.7844C12.577 25.5237 12.9125 25.3068 13.2735 25.1403C14.2042 24.7036 15.2221 24.4847 16.25 24.5C17.5232 24.5 18.5244 25.1675 19.5838 25.8744C20.7275 26.6366 22.0213 27.5 23.75 27.5C27.0219 27.5 28.7094 25.8509 28.7797 25.7806C28.9209 25.6405 29.0007 25.45 29.0015 25.2511C29.0023 25.0522 28.924 24.8611 28.7839 24.7198C28.6438 24.5786 28.4534 24.4988 28.2544 24.498C28.0555 24.4972 27.8644 24.5755 27.7232 24.7156Z" fill="white"/>
</svg>
