<svg width="40" height="40" viewBox="0 0 40 40" fill="none" xmlns="http://www.w3.org/2000/svg">
<path d="M0 19.2C0 12.4794 0 9.11905 1.30792 6.55211C2.4584 4.29417 4.29417 2.4584 6.55211 1.30792C9.11905 0 12.4794 0 19.2 0H20.8C27.5206 0 30.8809 0 33.4479 1.30792C35.7058 2.4584 37.5416 4.29417 38.6921 6.55211C40 9.11905 40 12.4794 40 19.2V20.8C40 27.5206 40 30.8809 38.6921 33.4479C37.5416 35.7058 35.7058 37.5416 33.4479 38.6921C30.8809 40 27.5206 40 20.8 40H19.2C12.4794 40 9.11905 40 6.55211 38.6921C4.29417 37.5416 2.4584 35.7058 1.30792 33.4479C0 30.8809 0 27.5206 0 20.8V19.2Z" fill="rgba(82, 82, 82, 0.7"/>
<path d="M28.25 12.5H11.75C11.5511 12.5 11.3603 12.579 11.2197 12.7197C11.079 12.8603 11 13.0511 11 13.25V26.75C11 26.9489 11.079 27.1397 11.2197 27.2803C11.3603 27.421 11.5511 27.5 11.75 27.5H28.25C28.4489 27.5 28.6397 27.421 28.7803 27.2803C28.921 27.1397 29 26.9489 29 26.75V13.25C29 13.0511 28.921 12.8603 28.7803 12.7197C28.6397 12.579 28.4489 12.5 28.25 12.5ZM17 21.5C16.555 21.5 16.12 21.368 15.75 21.1208C15.38 20.8736 15.0916 20.5222 14.9213 20.111C14.751 19.6999 14.7064 19.2475 14.7932 18.811C14.88 18.3746 15.0943 17.9737 15.409 17.659C15.7237 17.3443 16.1246 17.13 16.561 17.0432C16.9975 16.9564 17.4499 17.001 17.861 17.1713C18.2722 17.3416 18.6236 17.63 18.8708 18C19.118 18.37 19.25 18.805 19.25 19.25C19.25 19.8467 19.0129 20.419 18.591 20.841C18.169 21.2629 17.5967 21.5 17 21.5Z" fill="white" fill-opacity="0.1"/>
<path d="M26.75 18.5C26.75 18.6989 26.671 18.8897 26.5303 19.0303C26.3897 19.171 26.1989 19.25 26 19.25H22.25C22.0511 19.25 21.8603 19.171 21.7197 19.0303C21.579 18.8897 21.5 18.6989 21.5 18.5C21.5 18.3011 21.579 18.1103 21.7197 17.9697C21.8603 17.829 22.0511 17.75 22.25 17.75H26C26.1989 17.75 26.3897 17.829 26.5303 17.9697C26.671 18.1103 26.75 18.3011 26.75 18.5ZM26 20.75H22.25C22.0511 20.75 21.8603 20.829 21.7197 20.9697C21.579 21.1103 21.5 21.3011 21.5 21.5C21.5 21.6989 21.579 21.8897 21.7197 22.0303C21.8603 22.171 22.0511 22.25 22.25 22.25H26C26.1989 22.25 26.3897 22.171 26.5303 22.0303C26.671 21.8897 26.75 21.6989 26.75 21.5C26.75 21.3011 26.671 21.1103 26.5303 20.9697C26.3897 20.829 26.1989 20.75 26 20.75ZM29.75 13.25V26.75C29.75 27.1478 29.592 27.5294 29.3107 27.8107C29.0294 28.092 28.6478 28.25 28.25 28.25H11.75C11.3522 28.25 10.9706 28.092 10.6893 27.8107C10.408 27.5294 10.25 27.1478 10.25 26.75V13.25C10.25 12.8522 10.408 12.4706 10.6893 12.1893C10.9706 11.908 11.3522 11.75 11.75 11.75H28.25C28.6478 11.75 29.0294 11.908 29.3107 12.1893C29.592 12.4706 29.75 12.8522 29.75 13.25ZM28.25 26.75V13.25H11.75V26.75H28.25ZM20.7256 23.5625C20.7754 23.7552 20.7465 23.9598 20.6454 24.1312C20.5443 24.3026 20.3793 24.4268 20.1866 24.4766C19.9939 24.5263 19.7893 24.4974 19.6179 24.3963C19.4465 24.2952 19.3222 24.1302 19.2725 23.9375C19.0259 22.9756 18.0481 22.25 16.9991 22.25C15.95 22.25 14.9731 22.9756 14.7256 23.9375C14.6759 24.1302 14.5517 24.2952 14.3802 24.3963C14.2088 24.4974 14.0043 24.5263 13.8116 24.4766C13.6189 24.4268 13.4538 24.3026 13.3527 24.1312C13.2516 23.9598 13.2228 23.7552 13.2725 23.5625C13.5159 22.6566 14.0912 21.8755 14.8841 21.3744C14.4627 20.9555 14.1752 20.421 14.058 19.8386C13.9408 19.2562 13.9992 18.652 14.2257 18.1028C14.4523 17.5536 14.8368 17.084 15.3305 16.7536C15.8242 16.4232 16.405 16.2468 16.9991 16.2468C17.5932 16.2468 18.1739 16.4232 18.6676 16.7536C19.1614 17.084 19.5459 17.5536 19.7724 18.1028C19.9989 18.652 20.0573 19.2562 19.9401 19.8386C19.8229 20.421 19.5354 20.9555 19.1141 21.3744C19.9078 21.8748 20.4836 22.6562 20.7266 23.5625H20.7256ZM17 20.75C17.2967 20.75 17.5867 20.662 17.8334 20.4972C18.08 20.3324 18.2723 20.0981 18.3858 19.824C18.4994 19.5499 18.5291 19.2483 18.4712 18.9574C18.4133 18.6664 18.2704 18.3991 18.0607 18.1893C17.8509 17.9796 17.5836 17.8367 17.2926 17.7788C17.0017 17.7209 16.7001 17.7506 16.426 17.8642C16.1519 17.9777 15.9176 18.17 15.7528 18.4166C15.588 18.6633 15.5 18.9533 15.5 19.25C15.5 19.6478 15.658 20.0294 15.9393 20.3107C16.2206 20.592 16.6022 20.75 17 20.75Z" fill="white"/>
</svg>
